dataset
version=1
nRows=14
nColumns=39
inDegrees=no
endheader
time	sternoclavicular_r2	sternoclavicular_r3	unrotscap_r3	unrotscap_r2	acromioclavicular_r2	acromioclavicular_r3	acromioclavicular_r1	unrothum_r1	unrothum_r3	unrothum_r2	elv_angle	shoulder_elv	shoulder1_r2	shoulder_rot	elbow_flexion	pro_sup	deviation	flexion	cmc_abduction	cmc_flexion	mp_flexion	ip_flexion	mcp2_flexion	mcp2_abduction	pm2_flexion	md2_flexion	mcp3_flexion	mcp3_abduction	pm3_flexion	md3_flexion	mcp4_flexion	mcp4_abduction	pm4_flexion	md4_flexion	mcp5_flexion	mcp5_abduction	pm5_flexion	md5_flexion
0.000000	-0.052930	-0.500130	0.377787	0.152183	0.106603	0.228455	-0.305652	0.068674	-0.137093	0.132057	0.085875	0.027437	0.146525	0.146525	1.233464	1.006316	0.000000	0.000000	0.000000	0.000000	0.000000	0.000000	0.000000	0.000000	0.000000	0.000000	0.000000	0.000000	0.000000	0.000000	0.000000	0.000000	0.000000	0.000000	0.000000	0.000000	0.000000	0.000000
0.005000	-0.053050	-0.500525	0.379011	0.152501	0.106758	0.229268	-0.306565	0.070355	-0.138513	0.131916	0.085657	0.027437	0.146525	0.146525	1.233953	1.016605	0.000000	0.000000	0.000000	0.000000	0.000000	0.000000	0.000000	0.000000	0.000000	0.000000	0.000000	0.000000	0.000000	0.000000	0.000000	0.000000	0.000000	0.000000	0.000000	0.000000	0.000000	0.000000
0.010000	-0.053138	-0.500828	0.379932	0.152729	0.106864	0.229882	-0.307253	0.071611	-0.139582	0.131798	0.085481	0.027437	0.146525	0.146525	1.234430	1.026528	0.000000	0.000000	0.000000	0.000000	0.000000	0.000000	0.000000	0.000000	0.000000	0.000000	0.000000	0.000000	0.000000	0.000000	0.000000	0.000000	0.000000	0.000000	0.000000	0.000000	0.000000	0.000000
0.015000	-0.053204	-0.501063	0.380632	0.152893	0.106934	0.230349	-0.307775	0.072556	-0.140392	0.131698	0.085336	0.027437	0.146525	0.146525	1.234894	1.036098	0.000000	0.000000	0.000000	0.000000	0.000000	0.000000	0.000000	0.000000	0.000000	0.000000	0.000000	0.000000	0.000000	0.000000	0.000000	0.000000	0.000000	0.000000	0.000000	0.000000	0.000000	0.000000
0.020000	-0.053252	-0.501247	0.381167	0.153010	0.106978	0.230708	-0.308175	0.073271	-0.141011	0.131612	0.085215	0.027437	0.146525	0.146525	1.235344	1.045326	0.000000	0.000000	0.000000	0.000000	0.000000	0.000000	0.000000	0.000000	0.000000	0.000000	0.000000	0.000000	0.000000	0.000000	0.000000	0.000000	0.000000	0.000000	0.000000	0.000000	0.000000	0.000000
0.025000	-0.053287	-0.501395	0.381580	0.153092	0.107004	0.230986	-0.308484	0.073815	-0.141488	0.131537	0.085113	0.027437	0.146525	0.146525	1.235780	1.054223	0.000000	0.000000	0.000000	0.000000	0.000000	0.000000	0.000000	0.000000	0.000000	0.000000	0.000000	0.000000	0.000000	0.000000	0.000000	0.000000	0.000000	0.000000	0.000000	0.000000	0.000000	0.000000
0.030000	-0.053314	-0.501514	0.381904	0.153148	0.107016	0.231205	-0.308727	0.074233	-0.141859	0.131470	0.085024	0.027437	0.146525	0.146525	1.236201	1.062801	0.000000	0.000000	0.000000	0.000000	0.000000	0.000000	0.000000	0.000000	0.000000	0.000000	0.000000	0.000000	0.000000	0.000000	0.000000	0.000000	0.000000	0.000000	0.000000	0.000000	0.000000	0.000000
0.035000	-0.053333	-0.501614	0.382162	0.153186	0.107018	0.231380	-0.308920	0.074558	-0.142153	0.131409	0.084946	0.027437	0.146525	0.146525	1.236609	1.071070	0.000000	0.000000	0.000000	0.000000	0.000000	0.000000	0.000000	0.000000	0.000000	0.000000	0.000000	0.000000	0.000000	0.000000	0.000000	0.000000	0.000000	0.000000	0.000000	0.000000	0.000000	0.000000
0.040000	-0.053348	-0.501698	0.382370	0.153211	0.107014	0.231523	-0.309076	0.074813	-0.142388	0.131354	0.084876	0.027437	0.146525	0.146525	1.237004	1.079040	0.000000	0.000000	0.000000	0.000000	0.000000	0.000000	0.000000	0.000000	0.000000	0.000000	0.000000	0.000000	0.000000	0.000000	0.000000	0.000000	0.000000	0.000000	0.000000	0.000000	0.000000	0.000000
0.045000	-0.053359	-0.501770	0.382541	0.153226	0.107005	0.231641	-0.309205	0.075017	-0.142579	0.131302	0.084813	0.027437	0.146525	0.146525	1.237385	1.086723	0.000000	0.000000	0.000000	0.000000	0.000000	0.000000	0.000000	0.000000	0.000000	0.000000	0.000000	0.000000	0.000000	0.000000	0.000000	0.000000	0.000000	0.000000	0.000000	0.000000	0.000000	0.000000
0.050000	-0.053367	-0.501835	0.382685	0.153234	0.106992	0.231741	-0.309314	0.075182	-0.142737	0.131254	0.084755	0.027437	0.146525	0.146525	1.237754	1.094128	0.000000	0.000000	0.000000	0.000000	0.000000	0.000000	0.000000	0.000000	0.000000	0.000000	0.000000	0.000000	0.000000	0.000000	0.000000	0.000000	0.000000	0.000000	0.000000	0.000000	0.000000	0.000000
0.055000	-0.053374	-0.501893	0.382809	0.153238	0.106978	0.231828	-0.309407	0.075319	-0.142871	0.131209	0.084702	0.027437	0.146525	0.146525	1.238111	1.101264	0.000000	0.000000	0.000000	0.000000	0.000000	0.000000	0.000000	0.000000	0.000000	0.000000	0.000000	0.000000	0.000000	0.000000	0.000000	0.000000	0.000000	0.000000	0.000000	0.000000	0.000000	0.000000
0.060000	-0.053379	-0.501946	0.382918	0.153238	0.106962	0.231905	-0.309489	0.075435	-0.142986	0.131166	0.084652	0.027437	0.146525	0.146525	1.238456	1.108141	0.000000	0.000000	0.000000	0.000000	0.000000	0.000000	0.000000	0.000000	0.000000	0.000000	0.000000	0.000000	0.000000	0.000000	0.000000	0.000000	0.000000	0.000000	0.000000	0.000000	0.000000	0.000000
0.065000	-0.053383	-0.501996	0.383016	0.153236	0.106945	0.231975	-0.309563	0.075535	-0.143088	0.131126	0.084604	0.027437	0.146525	0.146525	1.238790	1.114768	0.000000	0.000000	0.000000	0.000000	0.000000	0.000000	0.000000	0.000000	0.000000	0.000000	0.000000	0.000000	0.000000	0.000000	0.000000	0.000000	0.000000	0.000000	0.000000	0.000000	0.000000	0.000000
